<?xml version="1.0" encoding="UTF-8" standalone="no"?>
<svg
   xmlns:dc="http://purl.org/dc/elements/1.1/"
   xmlns:cc="http://creativecommons.org/ns#"
   xmlns:rdf="http://www.w3.org/1999/02/22-rdf-syntax-ns#"
   xmlns:svg="http://www.w3.org/2000/svg"
   xmlns="http://www.w3.org/2000/svg"
   xmlns:sodipodi="http://sodipodi.sourceforge.net/DTD/sodipodi-0.dtd"
   xmlns:inkscape="http://www.inkscape.org/namespaces/inkscape"
   width="1536"
   height="1536"
   version="1.1"
   id="svg4"
   sodipodi:docname="pdf.svg"
   inkscape:version="0.92.5 (2060ec1f9f, 2020-04-08)">
  <metadata
     id="metadata10">
    <rdf:RDF>
      <cc:Work
         rdf:about="">
        <dc:format>image/svg+xml</dc:format>
        <dc:type
           rdf:resource="http://purl.org/dc/dcmitype/StillImage" />
        <dc:title></dc:title>
      </cc:Work>
    </rdf:RDF>
  </metadata>
  <defs
     id="defs8" />
  <sodipodi:namedview
     pagecolor="#ffffff"
     bordercolor="#666666"
     borderopacity="1"
     objecttolerance="10"
     gridtolerance="10"
     guidetolerance="10"
     inkscape:pageopacity="0"
     inkscape:pageshadow="2"
     inkscape:window-width="1731"
     inkscape:window-height="1180"
     id="namedview6"
     showgrid="false"
     inkscape:zoom="0.15364583"
     inkscape:cx="768"
     inkscape:cy="768"
     inkscape:window-x="72"
     inkscape:window-y="0"
     inkscape:window-maximized="0"
     inkscape:current-layer="svg4" />
  <path
     d="M1468 380c37 37 68 111 68 164v1152c0 53-43 96-96 96H96c-53 0-96-43-96-96V96C0 43 43 0 96 0h896c53 0 127 31 164 68zm-444-244v376h376c-6-17-15-34-22-41l-313-313c-7-7-24-16-41-22zm384 1528V640H992c-53 0-96-43-96-96V128H128v1536h1280zm-514-593c25 20 53 38 84 56 42-5 81-7 117-7 67 0 152 8 177 49 7 10 13 28 2 52-1 1-2 3-3 4v1c-3 18-18 38-71 38-64 0-161-29-245-73-139 15-285 46-392 83-103 176-182 262-242 262-10 0-19-2-28-7l-24-12c-3-1-4-3-6-5-5-5-9-16-6-36 10-46 64-123 188-188 8-5 18-2 23 6 1 1 2 3 2 4 31-51 67-116 107-197 45-90 80-178 104-262-32-109-42-221-24-287 7-25 22-40 42-40h22c15 0 27 5 35 15 12 14 15 36 9 68-1 3-2 6-4 8 1 3 1 5 1 8v30c-1 63-2 123-14 192 35 105 87 190 146 238zm-576 411c30-14 73-57 137-158-75 58-122 124-137 158zm398-920c-10 28-10 76-2 132 3-16 5-31 7-44 2-17 5-31 7-43 1-3 2-5 4-8-1-1-1-3-2-5-1-18-7-29-13-36 0 2-1 3-1 4zm-124 661c88-35 186-63 284-81-10-8-20-15-29-23-49-43-93-103-127-176-19 61-47 126-83 197-15 28-30 56-45 83zm646-16c-5-5-31-24-140-24 49 18 94 28 124 28 9 0 14 0 18-1 0-1-1-2-2-3z"
     id="path2"
     style="fill:#ffffff" />
</svg>
